<?xml version="1.0" encoding="UTF-8" standalone="no"?>
<!-- Created with Inkscape (http://www.inkscape.org/) -->

<svg
   width="512"
   height="261.71173"
   viewBox="0 0 135.46666 69.244564"
   version="1.1"
   id="svg1104"
   inkscape:version="1.1 (c68e22c387, 2021-05-23)"
   sodipodi:docname="jabuti-logo.svg"
   xmlns:inkscape="http://www.inkscape.org/namespaces/inkscape"
   xmlns:sodipodi="http://sodipodi.sourceforge.net/DTD/sodipodi-0.dtd"
   xmlns="http://www.w3.org/2000/svg"
   xmlns:svg="http://www.w3.org/2000/svg">
  <sodipodi:namedview
     id="namedview1106"
     pagecolor="#ffffff"
     bordercolor="#999999"
     borderopacity="1"
     inkscape:pageshadow="0"
     inkscape:pageopacity="0"
     inkscape:pagecheckerboard="0"
     inkscape:document-units="mm"
     showgrid="false"
     inkscape:zoom="0.088824405"
     inkscape:cx="765.55537"
     inkscape:cy="-1649.3215"
     inkscape:window-width="1920"
     inkscape:window-height="1017"
     inkscape:window-x="1592"
     inkscape:window-y="-8"
     inkscape:window-maximized="1"
     inkscape:current-layer="layer1"
     units="px"
     showguides="true"
     inkscape:guide-bbox="true"
     inkscape:showpageshadow="2"
     inkscape:deskcolor="#d1d1d1">
    <sodipodi:guide
       position="484.40881,33.111052"
       orientation="0,-1"
       id="guide17581"
       inkscape:locked="false" />
    <sodipodi:guide
       position="3.6087666e-06,47.259986"
       orientation="1,0"
       id="guide17583"
       inkscape:locked="false" />
    <sodipodi:guide
       position="484.40881,168.57771"
       orientation="0,-1"
       id="guide17585"
       inkscape:locked="false" />
    <sodipodi:guide
       position="135.46665,47.259986"
       orientation="1,0"
       id="guide17587"
       inkscape:locked="false" />
  </sodipodi:namedview>
  <defs
     id="defs1101" />
  <g
     inkscape:label="Camada 1"
     inkscape:groupmode="layer"
     id="layer1"
     transform="translate(348.59853,-32.623267)">
    <rect
       style="fill:none;stroke:none;stroke-width:1.172"
       id="rect17507"
       width="135.46666"
       height="135.46666"
       x="-348.59854"
       y="-0.487775"
       inkscape:export-filename="D:\UserData\WindowsUserData\Desktop\Jabuti-logo2-512px.png"
       inkscape:export-xdpi="96"
       inkscape:export-ydpi="96" />
    <path
       id="path1090"
       style="fill:#074689;fill-opacity:1;stroke:none;stroke-width:0.96767;stroke-miterlimit:4;stroke-dasharray:none"
       d="m -229.49459,32.623269 v 0.006 c 2.75528,0.006 3.36366,0.17337 5.65623,1.12715 5.87455,2.44919 9.77265,8.14681 10.60889,15.50909 0.21167,1.86358 0.12617,2.21734 -0.73061,3.03862 -0.53313,0.50828 -5.67449,3.76726 -11.42682,7.24033 -19.72482,11.90333 -21.86636,13.64581 -23.84282,19.40601 -0.84927,2.47128 -0.7214,4.97199 0.59753,11.57926 0.79928,3.99972 0.87673,5.03068 0.47274,6.29392 -0.56706,1.77154 -2.38905,3.657631 -4.31286,4.460501 -1.05498,0.44196 -2.70597,0.57086 -7.27896,0.57769 l -5.91409,0.006 -1.99976,-1.15298 c -3.24928,-1.870971 -3.53517,-2.640621 -3.53517,-9.560951 0,-3.26682 -0.16684,-5.94055 -0.37083,-5.94055 -0.20395,0 -2.4152,0.5635 -4.91522,1.25222 -6.02238,1.66103 -14.93011,2.97589 -21.98442,3.24471 -3.14881,0.11786 -5.9404,0.32811 -6.20174,0.46437 -0.34615,0.18407 -0.2847,0.80255 0.22444,2.2831 0.88929,2.59282 0.55519,4.63349 -1.07163,6.53756 -0.6762,0.78818 -2.00489,1.771551 -2.95288,2.180351 -1.55115,0.67037 -2.29841,0.73251 -7.49935,0.62935 -5.75233,-0.1143 -5.78169,-0.11757 -7.38153,-1.21524 -2.84051,-1.944591 -3.28074,-2.957301 -3.28074,-7.542601 0,-3.22998 -0.12469,-4.0843 -0.62733,-4.29791 -0.34527,-0.14725 -1.84998,-0.66681 -3.34588,-1.153 -1.49552,-0.48982 -5.9572,-2.21345 -9.91227,-3.83763 -7.32785,-3.00902 -8.07886,-3.50961 -8.07886,-5.39159 0,-1.1528 1.08104,-2.27609 2.98616,-3.09734 1.46071,-0.63353 1.95347,-0.67783 3.84291,-0.36106 3.42844,0.58188 13.43164,1.74545 18.69258,2.17269 6.40679,0.51962 21.4625,0.5268 26.09421,0.0119 14.60912,-1.63157 31.0096,-6.80585 45.11949,-14.23811 6.24505,-3.28888 6.59592,-3.789931 5.357,-7.686521 -0.93234,-2.93165 -1.94836,-5.185609 -3.65389,-8.117289 l -0.79189,-1.360277 1.18977,-3.066763 c 2.58389,-5.239703 5.65151,-7.20752 11.75955,-9.04902 2.38914,-0.71814 3.83798,-0.90965 7.18467,-0.94284 0.49228,-0.006 0.92969,-0.006 1.32323,-0.006 z m -63.41351,2.32715 c 0.20632,0.006 0.40161,0.006 0.5795,0.0148 l 2.47666,0.10717 0.89211,3.71962 c 0.49005,2.04408 1.00065,4.31283 1.13676,5.03468 l 0.24968,1.31151 -3.63151,1.84515 c -1.99729,1.01282 -4.29146,2.2279 -5.09682,2.69934 -1.28242,0.74762 -1.77666,0.82858 -3.97532,0.64808 -3.13667,-0.25412 -9.51398,-1.28123 -9.93929,-1.59799 -0.42964,-0.32051 -2.48945,-8.82835 -2.22505,-9.18929 0.30091,-0.41251 5.11273,-2.35352 7.50143,-3.02751 2.79485,-0.78815 8.93053,-1.57193 12.03196,-1.5651 z m 12.38406,1.03147 c 0.69926,0 2.0417,0.33158 4.24079,1.0203 8.67418,2.70697 15.24301,7.60513 19.27417,14.37082 0.92883,1.55788 1.80402,3.31865 1.94361,3.91157 0.24968,1.06436 0.17635,1.11608 -4.68785,3.45843 -2.71748,1.30744 -5.08667,2.33445 -5.26322,2.2866 -0.17634,-0.0517 -3.40359,-3.58677 -7.17077,-7.85905 l -6.84918,-7.76393 -0.92399,-4.10654 c -0.5079,-2.25765 -1.01597,-4.3829 -1.12985,-4.72175 -0.13182,-0.3941 0.0208,-0.59645 0.56629,-0.59645 z m 46.09481,7.38467 c -1.95603,0.0478 -3.71953,1.39573 -3.71953,3.47662 0,1.18964 0.23512,1.62041 1.28791,2.37177 2.14341,1.52476 4.81031,1.14877 6.034,-0.85476 0.95885,-1.57267 0.77761,-2.76187 -0.59613,-3.92574 -0.90452,-0.76606 -1.98173,-1.09366 -3.00625,-1.06789 z m -85.54004,0.98687 0.76662,3.15606 c 0.42095,1.73471 0.78441,3.47309 0.80617,3.86352 0.0344,0.58923 -5.27462,14.52575 -6.69182,17.5679 l -0.427,0.91702 -4.95266,-0.5008 c -2.72396,-0.27966 -5.01138,-0.55614 -5.08578,-0.61875 -0.21613,-0.18407 1.83781,-5.43256 3.26071,-8.33105 2.53303,-5.16354 6.24086,-10.2755 10.12154,-13.96217 z m 35.84979,7.20741 c 0.23008,-0.0119 10.84789,11.8151 11.1662,12.43756 0.26956,0.52668 -8.04309,3.06774 -15.40006,4.70299 -1.26541,0.28381 -2.48922,0.47132 -2.71927,0.41972 -0.44401,-0.0959 -1.21499,-4.65104 -1.6851,-9.96188 l -0.28292,-3.20831 2.03099,-0.97924 c 1.1167,-0.53774 3.06474,-1.52137 4.33017,-2.18801 1.26591,-0.66292 2.41811,-1.216 2.55987,-1.22283 z m -26.13993,4.50043 v 5.9e-4 c 0.94796,0.0148 2.93079,0.2945 7.51946,0.97569 1.21455,0.1805 1.32311,0.32083 1.58665,2.04829 0.36744,2.40868 1.49667,10.6398 1.50068,10.95288 0.002,0.12885 -0.32511,0.30941 -0.72782,0.40156 -1.18368,0.26125 -16.42247,0.26511 -16.42247,0.006 0,-0.63719 5.22291,-13.81118 5.61606,-14.16473 0.16388,-0.14725 0.35866,-0.22919 0.92744,-0.2179 z"
       inkscape:export-filename="D:\UserData\WindowsUserData\Desktop\Jabuti-logo2-512px.png"
       inkscape:export-xdpi="96"
       inkscape:export-ydpi="96"
       sodipodi:nodetypes="cccscccccccccssccccccccscccscccccccccccccccccccccccccccscccccccccscsccccccccccccccscccccccssccccccsccc" />
  </g>
</svg>
