<?xml version="1.0" encoding="UTF-8" standalone="no"?>
<!-- Created with Inkscape (http://www.inkscape.org/) -->

<svg
   width="512"
   height="512"
   viewBox="0 0 135.46666 135.46667"
   version="1.1"
   id="svg1104"
   inkscape:version="1.2.2 (732a01da63, 2022-12-09)"
   sodipodi:docname="jabuti-logo-cascoBranco-512px.svg"
   xmlns:inkscape="http://www.inkscape.org/namespaces/inkscape"
   xmlns:sodipodi="http://sodipodi.sourceforge.net/DTD/sodipodi-0.dtd"
   xmlns="http://www.w3.org/2000/svg"
   xmlns:svg="http://www.w3.org/2000/svg">
  <sodipodi:namedview
     id="namedview1106"
     pagecolor="#ffffff"
     bordercolor="#999999"
     borderopacity="1"
     inkscape:pageshadow="0"
     inkscape:pageopacity="0"
     inkscape:pagecheckerboard="0"
     inkscape:document-units="mm"
     showgrid="false"
     inkscape:zoom="1.0049334"
     inkscape:cx="366.19342"
     inkscape:cy="256.23589"
     inkscape:window-width="1920"
     inkscape:window-height="1001"
     inkscape:window-x="-9"
     inkscape:window-y="-9"
     inkscape:window-maximized="1"
     inkscape:current-layer="layer1"
     units="px"
     showguides="true"
     inkscape:guide-bbox="true"
     inkscape:showpageshadow="2"
     inkscape:deskcolor="#d1d1d1" />
  <defs
     id="defs1101" />
  <g
     inkscape:label="Camada 1"
     inkscape:groupmode="layer"
     id="layer1">
    <rect
       style="fill:none;stroke:none;stroke-width:1.172"
       id="rect17507"
       width="135.46666"
       height="135.46666"
       x="0.34363213"
       y="-0.487775"
       inkscape:export-filename="D:\UserData\WindowsUserData\Desktop\Jabuti-casco-e-olho-branco.png"
       inkscape:export-xdpi="96"
       inkscape:export-ydpi="96" />
    <path
       id="path1090"
       style="fill:#ffffff;fill-opacity:1;stroke:none;stroke-width:0.96767;stroke-miterlimit:4;stroke-dasharray:none"
       d="M 119.44749 32.626432 C 119.05395 32.626432 118.61634 32.626633 118.12406 32.632633 C 114.77737 32.665823 113.32862 32.857072 110.93948 33.575212 C 104.83145 35.41671 101.76388 37.384574 99.179993 42.624272 L 97.990401 45.691268 L 98.782084 47.051392 C 100.48761 49.983069 101.50379 52.237079 102.43612 55.168726 C 103.67504 59.065312 103.32387 59.566201 97.078829 62.855078 C 82.968953 70.287331 66.568725 75.461917 51.959619 77.093486 C 47.327914 77.608385 32.271871 77.600703 25.865088 77.081083 C 20.604153 76.653844 10.601125 75.490485 7.1726888 74.908606 C 5.2832507 74.591836 4.7907378 74.636295 3.3300293 75.269824 C 1.4249112 76.091073 0.34364827 77.213994 0.34364827 78.366793 C 0.34364827 80.248771 1.094899 80.749695 8.4227417 83.758712 C 12.377808 85.38289 16.83928 87.106384 18.334798 87.596204 C 19.830697 88.082393 21.335578 88.601855 21.680847 88.749105 C 22.183487 88.962715 22.308199 89.817057 22.308199 93.047034 C 22.308199 97.632329 22.748112 98.645137 25.588619 100.58973 C 27.188457 101.68739 27.217756 101.69086 32.970081 101.80516 C 38.171015 101.90832 38.918216 101.84611 40.469364 101.17574 C 41.417353 100.76694 42.746473 99.783687 43.422673 98.995508 C 45.049491 97.09144 45.383214 95.05074 44.493925 92.457922 C 43.984785 90.977374 43.9235 90.358927 44.269649 90.174858 C 44.530989 90.038598 47.322531 89.828146 50.471338 89.710286 C 57.525641 89.441467 66.433669 88.126552 72.456042 86.465523 C 74.95606 85.776804 77.167038 85.213403 77.370988 85.213403 C 77.574978 85.213403 77.742025 87.887309 77.742025 91.154126 C 77.742025 98.074449 78.027933 98.843814 81.277209 100.71478 L 83.276571 101.86768 L 89.190938 101.862 C 93.763924 101.85517 95.415102 101.72622 96.470081 101.28426 C 98.393889 100.48139 100.21542 98.595086 100.78248 96.823547 C 101.18647 95.560309 101.10944 94.529591 100.31016 90.529875 C 98.991228 83.922611 98.862991 81.421497 99.71226 78.95022 C 101.68872 73.190025 103.83045 71.448004 123.55525 59.544686 C 129.30757 56.071619 134.44881 52.81258 134.98194 52.304301 C 135.83872 51.483022 135.92432 51.129305 135.71265 49.265727 C 134.87641 41.903454 130.97854 36.205783 125.10399 33.756596 C 122.81142 32.802817 122.20277 32.635016 119.44749 32.629016 L 119.44749 32.626432 z M 56.034306 34.950321 L 56.034306 34.950838 C 52.932879 34.944008 46.796813 35.727968 44.001965 36.516117 C 41.613268 37.190107 36.801524 39.130813 36.500614 39.543323 C 36.236215 39.904262 38.296162 48.412433 38.725802 48.732943 C 39.151111 49.049702 45.52858 50.076658 48.665247 50.330778 C 50.863904 50.511278 51.357779 50.430375 52.640198 49.682756 C 53.445557 49.211316 55.739756 47.995998 57.737044 46.983179 L 61.368864 45.13833 L 61.119267 43.826782 C 60.983157 43.104933 60.472435 40.836025 59.982385 38.791947 L 59.09045 35.072278 L 56.613599 34.965308 C 56.435709 34.956508 56.240626 34.956321 56.034306 34.950321 z M 68.418046 35.981783 C 67.872557 35.981783 67.719852 36.184029 67.851672 36.578129 C 67.965552 36.916979 68.473936 39.042674 68.981836 41.300321 L 69.905811 45.406531 L 76.755005 53.170398 C 80.522181 57.442674 83.749287 60.978167 83.925627 61.029867 C 84.102176 61.077716 86.471394 60.050623 89.188871 58.743184 C 94.053066 56.400837 94.126637 56.34884 93.876957 55.284481 C 93.737367 54.691561 92.861719 52.93097 91.93289 51.373092 C 87.901734 44.607408 81.333302 39.70936 72.659131 37.002393 C 70.460043 36.313673 69.117305 35.981783 68.418046 35.981783 z M 114.60954 43.364795 C 114.70571 43.364459 114.80215 43.367606 114.89893 43.37358 C 114.8991 43.37359 114.89928 43.373569 114.89945 43.37358 C 115.15781 43.38956 115.41773 43.428119 115.67563 43.490885 C 115.67579 43.490925 115.67598 43.490846 115.67614 43.490885 C 115.80517 43.522304 115.93354 43.559915 116.06113 43.60354 C 116.18858 43.647115 116.3153 43.696801 116.44044 43.752885 C 116.44058 43.75295 116.44081 43.75282 116.44095 43.752885 C 116.56623 43.809048 116.6899 43.871956 116.81199 43.940987 C 116.9307 44.008108 117.04749 44.081534 117.16236 44.161129 C 117.16837 44.165294 117.17444 44.169331 117.18044 44.173531 C 117.29562 44.254157 117.409 44.340958 117.51944 44.434497 C 117.6053 44.507239 117.68628 44.58006 117.76284 44.653088 C 117.83939 44.726116 117.91105 44.799224 117.97833 44.872713 C 118.04561 44.946202 118.1084 45.020281 118.16643 45.094405 C 118.22446 45.16853 118.27782 45.242712 118.32663 45.317647 C 118.37543 45.392582 118.41983 45.46807 118.45944 45.54399 C 118.49904 45.61991 118.53391 45.696353 118.56434 45.773433 C 118.59477 45.850514 118.62058 45.928079 118.64185 46.006494 C 118.66313 46.084909 118.67983 46.164281 118.69198 46.244206 C 118.70408 46.323793 118.71164 46.404278 118.71472 46.485535 C 118.71472 46.485708 118.71471 46.485879 118.71472 46.486051 C 118.71472 46.486224 118.71471 46.486396 118.71472 46.486568 C 118.7361 47.05783 118.53528 47.672313 118.11579 48.360356 C 117.96283 48.610796 117.78705 48.835687 117.59282 49.034733 C 117.49571 49.134256 117.39392 49.227312 117.28793 49.313786 C 117.18194 49.40026 117.07162 49.480273 116.95772 49.553564 C 116.84381 49.626856 116.72614 49.693576 116.60529 49.753552 C 116.48443 49.813529 116.36059 49.866705 116.23373 49.913232 C 116.10688 49.95976 115.97701 49.99966 115.84513 50.032605 C 115.71324 50.06555 115.57904 50.091407 115.44308 50.110636 C 115.30712 50.129866 115.16978 50.142463 115.0307 50.147843 C 114.47442 50.169365 113.89666 50.079356 113.329 49.873958 C 113.18708 49.822609 113.046 49.764124 112.90577 49.698258 C 112.76554 49.632393 112.62632 49.559148 112.48874 49.478634 C 112.35117 49.398119 112.21549 49.310381 112.08153 49.215084 C 111.94993 49.121164 111.83111 49.032381 111.72393 48.946366 C 111.61675 48.860352 111.52113 48.777027 111.43609 48.694702 C 111.35105 48.612377 111.27647 48.531056 111.2113 48.448206 C 111.14753 48.367144 111.09284 48.284682 111.04594 48.199125 C 111.04388 48.195376 111.04176 48.191518 111.03973 48.187756 C 110.99353 48.101919 110.95504 48.012975 110.92346 47.918522 C 110.89119 47.821976 110.8657 47.719731 110.84646 47.610014 C 110.82722 47.500297 110.81412 47.383134 110.80564 47.25603 C 110.79755 47.134772 110.79408 47.00412 110.79375 46.863289 C 110.79374 46.856088 110.79324 46.850393 110.79324 46.843136 C 110.79324 46.839085 110.79374 46.835295 110.79375 46.83125 C 110.79416 46.705342 110.80092 46.582158 110.81391 46.461764 C 110.8269 46.341348 110.8464 46.223977 110.87127 46.10933 C 110.87288 46.101915 110.87426 46.094499 110.87592 46.087109 C 110.90149 45.973045 110.93227 45.861845 110.96894 45.753796 C 111.00682 45.642163 111.0507 45.533691 111.09968 45.428752 C 111.14727 45.326787 111.19994 45.228031 111.25729 45.132646 C 111.26064 45.127072 111.26424 45.12166 111.26763 45.116109 C 111.32552 45.021128 111.3878 44.929326 111.4547 44.841191 C 111.52149 44.753201 111.59305 44.668889 111.66812 44.587976 C 111.67046 44.585459 111.67249 44.582735 111.67484 44.580225 C 111.677 44.577912 111.67939 44.575813 111.68156 44.573507 C 111.75727 44.492842 111.8365 44.4158 111.91978 44.342513 C 112.08918 44.193454 112.27383 44.059995 112.47014 43.943054 C 112.47446 43.940481 112.47872 43.93786 112.48306 43.935303 C 112.58035 43.877862 112.68055 43.824297 112.7833 43.775106 C 112.7835 43.775009 112.78361 43.774686 112.78381 43.774589 C 112.88896 43.724272 112.99669 43.678535 113.10679 43.63713 C 113.43647 43.51315 113.78666 43.42975 114.14704 43.390633 C 114.14772 43.390559 114.14842 43.390707 114.1491 43.390633 C 114.14945 43.390596 114.1498 43.39067 114.15014 43.390633 C 114.26983 43.377727 114.39083 43.369344 114.51239 43.366345 C 114.51256 43.366341 114.51273 43.366349 114.51291 43.366345 C 114.51308 43.366341 114.51325 43.36635 114.51342 43.366345 C 114.54544 43.36554 114.57743 43.364907 114.60954 43.364795 z M 28.972909 44.353365 L 26.770459 46.445227 C 22.889783 50.131893 19.18214 55.243631 16.649113 60.407166 C 15.226214 63.305653 13.1722 68.55437 13.38833 68.73844 C 13.46273 68.80105 15.750367 69.077347 18.474325 69.357007 L 23.426994 69.857751 L 23.853841 68.941012 C 25.27104 65.898865 30.580339 51.962321 30.545939 51.373092 C 30.524179 50.982662 30.16022 49.243953 29.73927 47.509245 L 28.972909 44.353365 z M 64.8224 51.560677 C 64.68064 51.567507 63.528775 52.120939 62.262866 52.783858 C 60.997437 53.450498 59.04908 54.434099 57.932381 54.971838 L 55.901497 55.951107 L 56.184684 59.15918 C 56.654794 64.470014 57.425326 69.025462 57.869336 69.121362 C 58.099386 69.172962 59.323658 68.985043 60.589067 68.701233 C 67.946029 67.065985 76.258203 64.52484 75.988643 63.998161 C 75.670334 63.375701 65.052996 51.548777 64.822917 51.560677 L 64.8224 51.560677 z M 38.68291 56.061694 L 38.68291 56.063761 C 38.114131 56.052471 37.919198 56.134069 37.755318 56.281319 C 37.362169 56.634869 32.139124 69.809157 32.139124 70.446346 C 32.139124 70.705456 47.378215 70.701395 48.561894 70.440145 C 48.964603 70.347995 49.291498 70.167469 49.289498 70.038619 C 49.285488 69.725539 48.156254 61.494477 47.788814 59.085799 C 47.525275 57.358341 47.416897 57.217845 46.202348 57.037345 C 41.613682 56.356156 39.630869 56.076494 38.68291 56.061694 z " />
  </g>
</svg>
