<?xml version="1.0" encoding="UTF-8" standalone="no"?>
<!-- Created with Inkscape (http://www.inkscape.org/) -->

<svg
   width="512"
   height="512"
   viewBox="0 0 135.46666 135.46667"
   version="1.1"
   id="svg1104"
   inkscape:version="1.1 (c68e22c387, 2021-05-23)"
   sodipodi:docname="jabuti-logo-512px.svg"
   xmlns:inkscape="http://www.inkscape.org/namespaces/inkscape"
   xmlns:sodipodi="http://sodipodi.sourceforge.net/DTD/sodipodi-0.dtd"
   xmlns="http://www.w3.org/2000/svg"
   xmlns:svg="http://www.w3.org/2000/svg">
  <sodipodi:namedview
     id="namedview1106"
     pagecolor="#ffffff"
     bordercolor="#999999"
     borderopacity="1"
     inkscape:pageshadow="0"
     inkscape:pageopacity="0"
     inkscape:pagecheckerboard="0"
     inkscape:document-units="mm"
     showgrid="false"
     inkscape:zoom="0.088824405"
     inkscape:cx="765.55537"
     inkscape:cy="-1649.3215"
     inkscape:window-width="1920"
     inkscape:window-height="1017"
     inkscape:window-x="1592"
     inkscape:window-y="-8"
     inkscape:window-maximized="1"
     inkscape:current-layer="layer1"
     units="px"
     showguides="true"
     inkscape:guide-bbox="true">
    <sodipodi:guide
       position="135.81029,0.48778482"
       orientation="0,-1"
       id="guide17581" />
    <sodipodi:guide
       position="-348.59852,14.636719"
       orientation="1,0"
       id="guide17583" />
    <sodipodi:guide
       position="135.81029,135.95444"
       orientation="0,-1"
       id="guide17585" />
    <sodipodi:guide
       position="-213.13187,14.636719"
       orientation="1,0"
       id="guide17587" />
  </sodipodi:namedview>
  <defs
     id="defs1101" />
  <g
     inkscape:label="Camada 1"
     inkscape:groupmode="layer"
     id="layer1">
    <rect
       style="fill:none;stroke:none;stroke-width:1.172"
       id="rect17507"
       width="135.46666"
       height="135.46666"
       x="-348.59854"
       y="-0.487775"
       inkscape:export-filename="D:\UserData\WindowsUserData\Desktop\Jabuti-logo2-512px.png"
       inkscape:export-xdpi="96"
       inkscape:export-ydpi="96" />
    <rect
       style="fill:none;stroke:none;stroke-width:1.172"
       id="rect1200"
       width="135.46666"
       height="135.46666"
       x="0.34362856"
       y="-0.4877755"
       inkscape:export-filename="D:\UserData\WindowsUserData\Desktop\Jabuti-logo2-512px.png"
       inkscape:export-xdpi="96"
       inkscape:export-ydpi="96" />
    <g
       id="g16159"
       transform="translate(-0.80385163,2.2340441)">
      <path
         style="fill:#ffffff;stroke:none;stroke-width:0.264583px;stroke-linecap:butt;stroke-linejoin:miter;stroke-opacity:1"
         d="m -338.02443,68.738312 c 4.52567,-10.475284 9.62331,-27.655628 31.92138,-35.112246 6.48559,-2.232967 12.84532,-2.949969 19.30955,-2.562874 23.1585,1.457855 34.03011,16.637658 39.8133,27.919164 -14.86245,9.403641 -30.24185,13.824126 -48.82708,15.782212 -24.33912,3.095689 -32.91021,-0.816637 -47.11874,-2.223435 z"
         id="path8715"
         sodipodi:nodetypes="ccccccc"
         inkscape:export-filename="D:\UserData\WindowsUserData\Desktop\Jabuti-logo2-512px.png"
         inkscape:export-xdpi="96"
         inkscape:export-ydpi="96" />
      <path
         id="path1090"
         style="fill:#074689;fill-opacity:1;stroke:none;stroke-width:0.96767;stroke-miterlimit:4;stroke-dasharray:none"
         d="m -228.69074,30.389225 v 0.006 c 2.75528,0.006 3.36366,0.17337 5.65623,1.12715 5.87455,2.44919 9.77265,8.14681 10.60889,15.50909 0.21167,1.86358 0.12617,2.21734 -0.73061,3.03862 -0.53313,0.50828 -5.67449,3.76726 -11.42682,7.24033 -19.72482,11.90333 -21.86636,13.64581 -23.84282,19.40601 -0.84927,2.47128 -0.7214,4.97199 0.59753,11.57926 0.79928,3.99972 0.87673,5.03068 0.47274,6.29392 -0.56706,1.77154 -2.38905,3.657632 -4.31286,4.460502 -1.05498,0.44196 -2.70597,0.57086 -7.27896,0.57769 l -5.91409,0.006 -1.99976,-1.15298 c -3.24928,-1.870972 -3.53517,-2.640622 -3.53517,-9.560952 0,-3.26682 -0.16684,-5.94055 -0.37083,-5.94055 -0.20395,0 -2.4152,0.5635 -4.91522,1.25222 -6.02238,1.66103 -14.93011,2.97589 -21.98442,3.24471 -3.14881,0.11786 -5.9404,0.32811 -6.20174,0.46437 -0.34615,0.18407 -0.2847,0.80255 0.22444,2.2831 0.88929,2.59282 0.55519,4.63349 -1.07163,6.53756 -0.6762,0.78818 -2.00489,1.771552 -2.95288,2.180352 -1.55115,0.67037 -2.29841,0.73251 -7.49935,0.62935 -5.75233,-0.1143 -5.78169,-0.11757 -7.38153,-1.21524 -2.84051,-1.944592 -3.28074,-2.957302 -3.28074,-7.542602 0,-3.22998 -0.12469,-4.0843 -0.62733,-4.29791 -0.34527,-0.14725 -1.84998,-0.66681 -3.34588,-1.153 -1.49552,-0.48982 -5.9572,-2.21345 -9.91227,-3.83763 -7.32785,-3.00902 -8.07886,-3.50961 -8.07886,-5.39159 0,-1.1528 1.08104,-2.27609 2.98616,-3.09734 1.46071,-0.63353 1.95347,-0.67783 3.84291,-0.36106 3.42844,0.58188 13.43164,1.74545 18.69258,2.17269 6.40679,0.51962 21.4625,0.5268 26.09421,0.0119 14.60912,-1.63157 31.0096,-6.80585 45.11949,-14.23811 6.24505,-3.28888 6.59592,-3.789931 5.357,-7.686521 -0.93234,-2.93165 -1.94836,-5.185609 -3.65389,-8.117289 l -0.79189,-1.360277 1.18977,-3.066763 c 2.58389,-5.239703 5.65151,-7.20752 11.75955,-9.04902 2.38914,-0.71814 3.83798,-0.90965 7.18467,-0.94284 0.49228,-0.006 0.92969,-0.006 1.32323,-0.006 z m -63.41351,2.32715 c 0.20632,0.006 0.40161,0.006 0.5795,0.0148 l 2.47666,0.10717 0.89211,3.71962 c 0.49005,2.04408 1.00065,4.31283 1.13676,5.03468 l 0.24968,1.31151 -3.63151,1.84515 c -1.99729,1.01282 -4.29146,2.2279 -5.09682,2.69934 -1.28242,0.74762 -1.77666,0.82858 -3.97532,0.64808 -3.13667,-0.25412 -9.51398,-1.28123 -9.93929,-1.59799 -0.42964,-0.32051 -2.48945,-8.82835 -2.22505,-9.18929 0.30091,-0.41251 5.11273,-2.35352 7.50143,-3.02751 2.79485,-0.78815 8.93053,-1.57193 12.03196,-1.5651 z m 12.38406,1.03147 c 0.69926,0 2.0417,0.33158 4.24079,1.0203 8.67418,2.70697 15.24301,7.60513 19.27417,14.37082 0.92883,1.55788 1.80402,3.31865 1.94361,3.91157 0.24968,1.06436 0.17635,1.11608 -4.68785,3.45843 -2.71748,1.30744 -5.08667,2.33445 -5.26322,2.2866 -0.17634,-0.0517 -3.40359,-3.58677 -7.17077,-7.85905 l -6.84918,-7.76393 -0.92399,-4.10654 c -0.5079,-2.25765 -1.01597,-4.3829 -1.12985,-4.72175 -0.13182,-0.3941 0.0208,-0.59645 0.56629,-0.59645 z m 46.09481,7.38467 c -1.95603,0.0478 -3.71953,1.39573 -3.71953,3.47662 0,1.18964 0.23512,1.62041 1.28791,2.37177 2.14341,1.52476 4.81031,1.14877 6.034,-0.85476 0.95885,-1.57267 0.77761,-2.76187 -0.59613,-3.92574 -0.90452,-0.76606 -1.98173,-1.09366 -3.00625,-1.06789 z m -85.54004,0.98687 0.76662,3.15606 c 0.42095,1.73471 0.78441,3.47309 0.80617,3.86352 0.0344,0.58923 -5.27462,14.52575 -6.69182,17.5679 l -0.427,0.91702 -4.95266,-0.5008 c -2.72396,-0.27966 -5.01138,-0.55614 -5.08578,-0.61875 -0.21613,-0.18407 1.83781,-5.43256 3.26071,-8.33105 2.53303,-5.16354 6.24086,-10.2755 10.12154,-13.96217 z m 35.84979,7.20741 c 0.23008,-0.0119 10.84789,11.8151 11.1662,12.43756 0.26956,0.52668 -8.04309,3.06774 -15.40006,4.70299 -1.26541,0.28381 -2.48922,0.47132 -2.71927,0.41972 -0.44401,-0.0959 -1.21499,-4.65104 -1.6851,-9.96188 l -0.28292,-3.20831 2.03099,-0.97924 c 1.1167,-0.53774 3.06474,-1.52137 4.33017,-2.18801 1.26591,-0.66292 2.41811,-1.216 2.55987,-1.22283 z m -26.13993,4.50043 v 5.9e-4 c 0.94796,0.0148 2.93079,0.2945 7.51946,0.97569 1.21455,0.1805 1.32311,0.32083 1.58665,2.04829 0.36744,2.40868 1.49667,10.6398 1.50068,10.95288 0.002,0.12885 -0.32511,0.30941 -0.72782,0.40156 -1.18368,0.26125 -16.42247,0.26511 -16.42247,0.006 0,-0.63719 5.22291,-13.81118 5.61606,-14.16473 0.16388,-0.14725 0.35866,-0.22919 0.92744,-0.2179 z"
         inkscape:export-filename="D:\UserData\WindowsUserData\Desktop\Jabuti-logo2-512px.png"
         inkscape:export-xdpi="96"
         inkscape:export-ydpi="96"
         sodipodi:nodetypes="cccscccccccccssccccccccscccscccccccccccccccccccccccccccscccccccccscsccccccccccccccscccccccssccccccsccc" />
      <path
         id="rect10192"
         style="fill:#ffffff;fill-opacity:1;stroke:none;stroke-width:1.365"
         d="m -233.62512,41.132303 c -1.95603,0.0478 -3.71967,1.395899 -3.71967,3.476789 0,1.189641 0.23498,1.620589 1.28777,2.37195 2.14341,1.524759 4.81057,1.148799 6.03426,-0.854729 0.95885,-1.57267 0.77739,-2.76199 -0.59634,-3.925858 -0.90452,-0.766061 -1.9815,-1.093922 -3.00602,-1.068152 z"
         inkscape:export-filename="D:\UserData\WindowsUserData\Desktop\Jabuti-logo2-512px.png"
         inkscape:export-xdpi="96"
         inkscape:export-ydpi="96" />
    </g>
    <text
       xml:space="preserve"
       style="font-style:normal;font-weight:normal;font-size:10.5833px;line-height:1.25;font-family:sans-serif;fill:#000000;fill-opacity:1;stroke:none;stroke-width:0.264583"
       x="202.20245"
       y="-23.176825"
       id="text11624"><tspan
         sodipodi:role="line"
         id="tspan11622"
         style="stroke-width:0.264583"
         x="202.20245"
         y="-23.176825">Tartaruga transparente</tspan></text>
    <text
       xml:space="preserve"
       style="font-style:normal;font-weight:normal;font-size:10.5833px;line-height:1.25;font-family:sans-serif;fill:#000000;fill-opacity:1;stroke:none;stroke-width:0.264583"
       x="359.54071"
       y="-22.214031"
       id="text11840"><tspan
         sodipodi:role="line"
         id="tspan11838"
         style="stroke-width:0.264583"
         x="359.54071"
         y="-22.214031">tartaruga branca</tspan></text>
    <g
       id="g15060"
       transform="translate(3.1968352,-2.7477195)">
      <rect
         style="fill:#ffffff;fill-opacity:1;stroke:none;stroke-width:1.365"
         id="rect14954"
         width="135.46666"
         height="135.467"
         x="334.97925"
         y="2.2599447" />
      <path
         id="path11070"
         style="fill:#074689;fill-opacity:1;stroke-width:1.365"
         d="M 334.97926,2.2599445 V 81.114557 c 0,-1.1528 1.08127,-2.27571 2.98638,-3.09696 1.46072,-0.63353 1.95322,-0.67799 3.84266,-0.36122 3.42844,0.58188 13.43198,1.74524 18.69292,2.17248 6.40679,0.51962 21.4623,0.5273 26.09401,0.0124 14.60912,-1.63157 31.00984,-6.80615 45.11973,-14.238411 6.24505,-3.28888 6.5957,-3.789761 5.35677,-7.686351 -0.93233,-2.931649 -1.9485,-5.185653 -3.65403,-8.117334 l -1.07126,-1.837614 1.46916,-2.589506 c 2.88009,-5.07515 5.65197,-7.207559 11.76001,-9.049059 2.38914,-0.71814 3.83788,-0.909389 7.18457,-0.942578 0.49228,-0.006 0.92938,-0.0062 1.32292,-0.0062 l 5.2e-4,-0.0031 v 0.0057 c 2.75527,0.006 3.36341,0.173799 5.65598,1.127577 5.87455,2.449192 9.77293,8.146852 10.60917,15.509131 0.21167,1.86358 0.12608,2.217296 -0.7307,3.038576 -0.53313,0.50828 -5.67488,3.767315 -11.42721,7.240388 -19.72482,11.903331 -21.86601,13.645331 -23.84247,19.405531 -0.84927,2.47128 -0.72155,4.97239 0.59738,11.57966 0.79928,3.99972 0.87683,5.03043 0.47284,6.29367 -0.56707,1.771543 -2.38911,3.657833 -4.31292,4.460703 -1.05498,0.44196 -2.70615,0.57091 -7.27914,0.57774 l -5.91385,0.006 -1.99988,-1.1529 c -3.24928,-1.87097 -3.53519,-2.64032 -3.53519,-9.560653 0,-3.26682 -0.16652,-5.94072 -0.37052,-5.94072 -0.20394,0 -2.41544,0.5634 -4.91546,1.25212 -6.02238,1.66103 -14.92987,2.97594 -21.98419,3.24476 -3.1488,0.11786 -5.94086,0.32831 -6.2022,0.46457 -0.34615,0.18407 -0.28435,0.80252 0.22479,2.28307 0.88929,2.59281 0.55505,4.63351 -1.07177,6.537583 -0.6762,0.78818 -2.0048,1.77142 -2.95279,2.18022 -1.55115,0.67037 -2.29834,0.73258 -7.49928,0.62942 -5.75233,-0.1143 -5.78162,-0.11776 -7.38146,-1.21543 -2.84051,-1.94458 -3.28094,-2.95738 -3.28094,-7.542683 0,-3.22998 -0.12471,-4.08432 -0.62735,-4.29793 -0.34527,-0.14725 -1.85015,-0.66671 -3.34605,-1.1529 -1.49551,-0.48982 -5.95699,-2.21332 -9.91206,-3.8375 -7.32785,-3.00901 -8.07909,-3.50993 -8.07909,-5.39192 V 137.72694 H 470.44592 V 2.2599445 Z M 390.66992,37.69809 c 0.20632,0.006 0.4014,0.0062 0.57929,0.01499 l 2.47685,0.106971 0.89194,3.719669 c 0.49005,2.04408 1.00077,4.312986 1.13688,5.034835 l 0.24959,1.311548 -3.6313,1.844849 c -1.99729,1.01282 -4.29148,2.228136 -5.09684,2.699576 -1.28242,0.74762 -1.77681,0.828524 -3.97547,0.648023 -3.13667,-0.25412 -9.51362,-1.281076 -9.93893,-1.597835 -0.42964,-0.320511 -2.48959,-8.82868 -2.22519,-9.189619 0.30091,-0.41251 5.11265,-2.353215 7.50135,-3.027207 2.79485,-0.788149 8.9304,-1.572109 12.03183,-1.565277 z m 12.38425,1.031462 c 0.69926,0 2.04148,0.331891 4.24057,1.020609 8.67418,2.706971 15.24312,7.605009 19.27428,14.370701 0.92883,1.55788 1.80396,3.318468 1.94355,3.911388 0.24968,1.064361 0.17611,1.116354 -4.68809,3.458702 -2.71748,1.307444 -5.08669,2.334014 -5.26324,2.286164 -0.17634,-0.0517 -3.40345,-3.58667 -7.17063,-7.85895 l -6.84919,-7.763867 -0.92397,-4.106209 c -0.5079,-2.25765 -1.01577,-4.383341 -1.12965,-4.722191 -0.13182,-0.394099 0.0209,-0.596347 0.56637,-0.596347 z m 46.09486,7.384563 c -1.95603,0.0478 -3.71967,1.3959 -3.71967,3.476789 0,1.189641 0.23499,1.620589 1.28778,2.37195 2.14341,1.52476 4.81057,1.1488 6.03426,-0.854728 0.95885,-1.57267 0.77739,-2.761991 -0.59635,-3.925859 -0.90452,-0.766061 -1.9815,-1.093922 -3.00602,-1.068152 z m -85.54051,0.987021 0.76688,3.155878 c 0.42095,1.734709 0.78439,3.473416 0.80615,3.863848 0.0344,0.58923 -5.2749,14.525764 -6.6921,17.567915 l -0.42684,0.91675 -4.95267,-0.50075 c -2.72396,-0.27966 -5.01108,-0.55596 -5.08548,-0.618571 -0.21613,-0.18407 1.83737,-5.43278 3.26026,-8.33127 2.53304,-5.16354 6.24119,-10.275269 10.12187,-13.961939 z m 35.85001,7.20731 c 0.23008,-0.0119 10.84793,11.81502 11.16624,12.43748 0.26956,0.52668 -8.04312,3.06783 -15.40009,4.70308 -1.26541,0.283811 -2.48917,0.471731 -2.71922,0.420121 -0.44401,-0.0959 -1.21506,-4.651341 -1.68516,-9.962178 l -0.28267,-3.208073 2.03088,-0.979268 c 1.1167,-0.537742 3.06454,-1.521341 4.32997,-2.18798 1.26591,-0.662921 2.41829,-1.216353 2.56005,-1.223182 z m -26.14001,4.501018 c 0.94796,0.0148 2.93077,0.29446 7.51944,0.975651 1.21455,0.180499 1.32344,0.320992 1.58698,2.048454 0.36744,2.408677 1.49668,10.639738 1.50069,10.952818 0.002,0.12885 -0.32541,0.30938 -0.72813,0.40153 -1.18368,0.26125 -16.42225,0.26531 -16.42225,0.006 0,-0.63719 5.22253,-13.811478 5.61568,-14.165028 0.16388,-0.147251 0.35881,-0.228849 0.92759,-0.217559 z" />
    </g>
    <path
       id="rect847"
       style="fill:#074689;fill-opacity:1;stroke-width:1.365"
       d="M 186.83271,-0.48777501 V 78.366837 c 0,-1.1528 1.08127,-2.27571 2.98638,-3.09696 1.46072,-0.63353 1.95322,-0.67799 3.84266,-0.36122 3.42844,0.58188 13.43198,1.74524 18.69292,2.17248 6.40679,0.51962 21.4623,0.5273 26.09401,0.0124 14.60912,-1.63157 31.00984,-6.80615 45.11973,-14.238411 6.24505,-3.28888 6.5957,-3.789761 5.35677,-7.686351 -0.93233,-2.931649 -1.9485,-5.185653 -3.65403,-8.117334 l -1.07126,-1.837614 1.46916,-2.589506 c 2.88009,-5.07515 5.65197,-7.207559 11.76001,-9.049059 2.38914,-0.71814 3.83788,-0.909389 7.18457,-0.942578 0.49228,-0.006 0.92938,-0.0062 1.32292,-0.0062 l 5.2e-4,-0.0031 v 0.0057 c 2.75527,0.006 3.36341,0.173799 5.65598,1.127577 5.87455,2.449192 9.77293,8.146852 10.60917,15.509131 0.21167,1.86358 0.12608,2.217296 -0.7307,3.038576 -0.53313,0.50828 -5.67488,3.767315 -11.42721,7.240388 -19.72482,11.903331 -21.86601,13.645331 -23.84247,19.405531 -0.84927,2.47128 -0.72155,4.97239 0.59738,11.57966 0.79928,3.99972 0.87683,5.03043 0.47284,6.29367 -0.56707,1.771541 -2.38911,3.657833 -4.31292,4.460703 -1.05498,0.44196 -2.70615,0.57091 -7.27914,0.57774 l -5.91385,0.006 -1.99988,-1.1529 c -3.24928,-1.870972 -3.53519,-2.64032 -3.53519,-9.560653 0,-3.26682 -0.16652,-5.94072 -0.37052,-5.94072 -0.20394,0 -2.41544,0.5634 -4.91546,1.25212 -6.02238,1.66103 -14.92987,2.97594 -21.98419,3.24476 -3.1488,0.11786 -5.94086,0.32831 -6.2022,0.46457 -0.34615,0.18407 -0.28435,0.80252 0.22479,2.28307 0.88929,2.59281 0.55505,4.63351 -1.07177,6.537581 -0.6762,0.78818 -2.0048,1.771422 -2.95279,2.180222 -1.55115,0.67037 -2.29834,0.73258 -7.49928,0.62942 -5.75233,-0.1143 -5.78162,-0.11776 -7.38146,-1.21543 -2.84051,-1.944582 -3.28094,-2.95738 -3.28094,-7.542683 0,-3.22998 -0.12471,-4.08432 -0.62735,-4.29793 -0.34527,-0.14725 -1.85015,-0.66671 -3.34605,-1.1529 -1.49551,-0.48982 -5.95699,-2.21332 -9.91206,-3.8375 -7.32785,-3.00901 -8.07909,-3.50993 -8.07909,-5.39192 V 134.97922 H 322.29937 V -0.48777501 Z M 242.52337,34.95037 c 0.20632,0.006 0.4014,0.0062 0.57929,0.01499 l 2.47685,0.106971 0.89194,3.719669 c 0.49005,2.04408 1.00077,4.312986 1.13688,5.034835 l 0.24959,1.311548 -3.6313,1.844849 c -1.99729,1.01282 -4.29148,2.228136 -5.09684,2.699576 -1.28242,0.74762 -1.77681,0.828524 -3.97547,0.648023 -3.13667,-0.25412 -9.51362,-1.281076 -9.93893,-1.597835 -0.42964,-0.320511 -2.48959,-8.82868 -2.22519,-9.189619 0.30091,-0.41251 5.11265,-2.353215 7.50135,-3.027207 2.79485,-0.788149 8.9304,-1.572109 12.03183,-1.565277 z m 12.38425,1.031462 c 0.69926,0 2.04148,0.331891 4.24057,1.020609 8.67418,2.706971 15.24312,7.605009 19.27428,14.370701 0.92883,1.55788 1.80396,3.318468 1.94355,3.911388 0.24968,1.064361 0.17611,1.116354 -4.68809,3.458702 -2.71748,1.307444 -5.08669,2.334014 -5.26324,2.286164 -0.17634,-0.0517 -3.40345,-3.58667 -7.17063,-7.85895 l -6.84919,-7.763867 -0.92397,-4.106209 c -0.5079,-2.25765 -1.01577,-4.383341 -1.12965,-4.722191 -0.13182,-0.394099 0.0209,-0.596347 0.56637,-0.596347 z m 46.09486,7.384563 c -1.95603,0.0478 -3.71967,1.3959 -3.71967,3.476789 0,1.189641 0.23499,1.620589 1.28778,2.37195 2.14341,1.52476 4.81057,1.1488 6.03426,-0.854728 0.95885,-1.57267 0.77739,-2.761991 -0.59635,-3.925859 -0.90452,-0.766061 -1.9815,-1.093922 -3.00602,-1.068152 z m -85.54051,0.987021 0.76688,3.155878 c 0.42095,1.734709 0.78439,3.473416 0.80615,3.863848 0.0344,0.58923 -5.2749,14.525764 -6.6921,17.567915 l -0.42684,0.91675 -4.95267,-0.50075 c -2.72396,-0.27966 -5.01108,-0.55596 -5.08548,-0.618571 -0.21613,-0.18407 1.83737,-5.43278 3.26026,-8.33127 2.53304,-5.16354 6.24119,-10.275269 10.12187,-13.961939 z m 35.85001,7.20731 c 0.23008,-0.0119 10.84793,11.81502 11.16624,12.43748 0.26956,0.52668 -8.04312,3.06783 -15.40009,4.70308 -1.26541,0.283811 -2.48917,0.471731 -2.71922,0.420121 -0.44401,-0.0959 -1.21506,-4.651341 -1.68516,-9.962178 l -0.28267,-3.208073 2.03088,-0.979268 c 1.1167,-0.537742 3.06454,-1.521341 4.32997,-2.18798 1.26591,-0.662921 2.41829,-1.216353 2.56005,-1.223182 z m -26.14001,4.501018 c 0.94796,0.0148 2.93077,0.29446 7.51944,0.975651 1.21455,0.180499 1.32344,0.320992 1.58698,2.048454 0.36744,2.408677 1.49668,10.639738 1.50069,10.952818 0.002,0.12885 -0.32541,0.30938 -0.72813,0.40153 -1.18368,0.26125 -16.42225,0.26531 -16.42225,0.006 0,-0.63719 5.22253,-13.811478 5.61568,-14.165028 0.16388,-0.147251 0.35881,-0.228849 0.92759,-0.217559 z" />
    <path
       id="path15062"
       style="fill:#074689;fill-opacity:1;stroke:none;stroke-width:0.96767;stroke-miterlimit:4;stroke-dasharray:none"
       d="m 119.44756,32.623269 v 0.006 c 2.75528,0.006 3.36366,0.17337 5.65623,1.12715 5.87455,2.44919 9.77265,8.14681 10.60889,15.50909 0.21167,1.86358 0.12617,2.21734 -0.73061,3.03862 -0.53313,0.50828 -5.67449,3.76726 -11.42682,7.24033 -19.72482,11.90333 -21.86636,13.64581 -23.842817,19.40601 -0.849273,2.47128 -0.721403,4.97199 0.597527,11.57926 0.79928,3.99972 0.87673,5.03068 0.47274,6.29392 -0.56706,1.77154 -2.38905,3.657631 -4.31286,4.460501 -1.05498,0.44196 -2.70597,0.57086 -7.27896,0.57769 l -5.91409,0.006 -1.99976,-1.15298 c -3.24928,-1.870971 -3.53517,-2.640621 -3.53517,-9.560951 0,-3.26682 -0.16684,-5.94055 -0.37083,-5.94055 -0.20395,0 -2.4152,0.5635 -4.91522,1.25222 -6.022381,1.66103 -14.930111,2.97589 -21.984421,3.24471 -3.14881,0.11786 -5.9404,0.32811 -6.20174,0.46437 -0.34615,0.18407 -0.2847,0.80255 0.22444,2.2831 0.88929,2.59282 0.55519,4.63349 -1.07163,6.53756 -0.6762,0.78818 -2.00489,1.771551 -2.95288,2.180351 -1.55115,0.67037 -2.29841,0.73251 -7.49935,0.62935 -5.75233,-0.1143 -5.78169,-0.11757 -7.38153,-1.21524 -2.84051,-1.944591 -3.28074,-2.957301 -3.28074,-7.542601 0,-3.22998 -0.12469,-4.0843 -0.62733,-4.29791 -0.34527,-0.14725 -1.84998,-0.66681 -3.34588,-1.153 -1.49551,-0.48982 -5.9572,-2.21345 -9.9122698,-3.83763 -7.32785,-3.00902 -8.07885994,-3.50961 -8.07885994,-5.39159 0,-1.1528 1.08104994,-2.27609 2.98615994,-3.09734 1.46072,-0.63353 1.95347,-0.67783 3.84291,-0.36106 3.4284398,0.58188 13.4316498,1.74545 18.6925798,2.17269 6.40679,0.51962 21.4625,0.5268 26.09421,0.0119 14.60912,-1.63157 31.009601,-6.80585 45.119491,-14.23811 6.24505,-3.28888 6.59592,-3.789931 5.357,-7.686521 -0.93234,-2.93165 -1.94836,-5.185609 -3.65389,-8.117289 l -0.79189,-1.360277 1.18977,-3.066763 c 2.58389,-5.239703 5.65151,-7.20752 11.75955,-9.04902 2.38914,-0.71814 3.83798,-0.90965 7.18467,-0.94284 0.49228,-0.006 0.92969,-0.006 1.32323,-0.006 z m -63.413511,2.32715 c 0.20632,0.006 0.40161,0.006 0.5795,0.0148 l 2.47666,0.10717 0.89211,3.71962 c 0.49005,2.04408 1.00065,4.31283 1.13676,5.03468 l 0.24968,1.31151 -3.63151,1.84515 c -1.99729,1.01282 -4.29146,2.2279 -5.09682,2.69934 -1.28242,0.74762 -1.77666,0.82858 -3.97532,0.64808 -3.13667,-0.25412 -9.51398,-1.28123 -9.93929,-1.59799 -0.42964,-0.32051 -2.48945,-8.82835 -2.22505,-9.18929 0.30091,-0.41251 5.11273,-2.35352 7.50143,-3.02751 2.79485,-0.78815 8.93053,-1.57193 12.03196,-1.5651 z m 12.38406,1.03147 c 0.69926,0 2.0417,0.33158 4.240791,1.0203 8.67418,2.70697 15.24301,7.60513 19.27417,14.37082 0.92883,1.55788 1.80402,3.31865 1.94361,3.91157 0.24968,1.06436 0.17635,1.11608 -4.68785,3.45843 -2.71748,1.30744 -5.08667,2.33445 -5.26322,2.2866 -0.17634,-0.0517 -3.40359,-3.58677 -7.17077,-7.85905 l -6.849181,-7.76393 -0.92399,-4.10654 c -0.5079,-2.25765 -1.01597,-4.3829 -1.12985,-4.72175 -0.13182,-0.3941 0.0208,-0.59645 0.56629,-0.59645 z m 46.094811,7.38467 c -1.95603,0.0478 -3.71953,1.39573 -3.71953,3.47662 0,1.18964 0.23512,1.62041 1.28791,2.37177 2.14341,1.52476 4.81031,1.14877 6.034,-0.85476 0.95885,-1.57267 0.77761,-2.76187 -0.59613,-3.92574 -0.90452,-0.76606 -1.98173,-1.09366 -3.00625,-1.06789 z m -85.540041,0.98687 0.76662,3.15606 c 0.42095,1.73471 0.78441,3.47309 0.80617,3.86352 0.0344,0.58923 -5.27462,14.52575 -6.69182,17.5679 l -0.427,0.91702 -4.95266,-0.5008 c -2.72395,-0.27966 -5.01138,-0.55614 -5.08578,-0.61875 -0.21612,-0.18407 1.83781,-5.43256 3.26071,-8.33105 2.53303,-5.16354 6.24086,-10.2755 10.12154,-13.96217 z m 35.84979,7.20741 c 0.23008,-0.0119 10.847891,11.8151 11.166201,12.43756 0.26956,0.52668 -8.043091,3.06774 -15.400061,4.70299 -1.26541,0.28381 -2.48922,0.47132 -2.71927,0.41972 -0.44401,-0.0959 -1.21499,-4.65104 -1.6851,-9.96188 l -0.28292,-3.20831 2.03099,-0.97924 c 1.1167,-0.53774 3.06474,-1.52137 4.33017,-2.18801 1.26591,-0.66292 2.41811,-1.216 2.55987,-1.22283 z m -26.13993,4.50043 v 5.9e-4 c 0.94796,0.0148 2.93079,0.2945 7.51946,0.97569 1.21455,0.1805 1.32311,0.32083 1.58665,2.04829 0.36744,2.40868 1.49667,10.6398 1.50068,10.95288 0.002,0.12885 -0.32511,0.30941 -0.72782,0.40156 -1.18368,0.26125 -16.42247,0.26511 -16.42247,0.006 0,-0.63719 5.22291,-13.81118 5.61606,-14.16473 0.16388,-0.14725 0.35866,-0.22919 0.92744,-0.2179 z"
       inkscape:export-filename="D:\UserData\WindowsUserData\Desktop\Jabuti-logo2-512px.png"
       inkscape:export-xdpi="96"
       inkscape:export-ydpi="96"
       sodipodi:nodetypes="cccscccccccccssccccccccscccscccccccccccccccccccccccccccscccccccccscsccccccccccccccscccccccssccccccsccc" />
    <text
       xml:space="preserve"
       style="font-style:normal;font-weight:normal;font-size:10.5833px;line-height:1.25;font-family:sans-serif;fill:#000000;fill-opacity:1;stroke:none;stroke-width:0.264583"
       x="13.798203"
       y="-20.688791"
       id="text15066"><tspan
         sodipodi:role="line"
         id="tspan15064"
         style="stroke-width:0.264583"
         x="13.798203"
         y="-20.688791">Fundo transparente</tspan></text>
    <text
       xml:space="preserve"
       style="font-style:normal;font-weight:normal;font-size:10.5833px;line-height:1.25;font-family:sans-serif;fill:#000000;fill-opacity:1;stroke:none;stroke-width:0.264583"
       x="-338.43582"
       y="-34.99358"
       id="text16163"><tspan
         sodipodi:role="line"
         style="stroke-width:0.264583"
         x="-338.43582"
         y="-34.99358"
         id="tspan16511">Fundo transparente e</tspan><tspan
         sodipodi:role="line"
         style="stroke-width:0.264583"
         x="-338.43582"
         y="-21.764454"
         id="tspan18339"> casco branco</tspan></text>
  </g>
</svg>
